<?xml version="1.0" encoding="utf-8"?>
<!-- Generator: Adobe Illustrator 16.0.0, SVG Export Plug-In . SVG Version: 6.00 Build 0)  -->
<!DOCTYPE svg PUBLIC "-//W3C//DTD SVG 1.1//EN" "http://www.w3.org/Graphics/SVG/1.1/DTD/svg11.dtd">
<svg version="1.1" id="Layer_1" xmlns="http://www.w3.org/2000/svg" xmlns:xlink="http://www.w3.org/1999/xlink" x="0px" y="0px"
	 width="841.89px" height="841.89px" viewBox="0 0 841.89 841.89" enable-background="new 0 0 841.89 841.89" xml:space="preserve">
<circle fill="#2A2C31" cx="429.604" cy="406.346" r="336"/>
<g>
	<path fill="#5E8C6A" stroke="#2A2C31" stroke-width="8" stroke-miterlimit="10" d="M367.631,264.861
		c-0.425,1.281-1.066,3.629-1.92,7.043c-9.391,38.204-16.86,91.132-20.062,120.158c-0.425,4.27-2.347,5.762-6.188,5.762h-23.05
		c-3.201,0-4.908-1.492-5.764-4.695c-3.413-20.061-11.311-45.458-12.163-49.301c-1.281,3.843-8.752,28.812-12.38,49.301
		c-0.427,2.562-1.92,4.695-5.763,4.695h-23.049c-3.628,0-5.55-1.066-6.19-5.762c-2.988-28.6-10.458-81.528-20.063-120.158
		c-0.852-3.414-1.493-5.762-1.919-7.043c-0.426-1.067-0.64-2.133-0.64-3.201c0-1.28,0.854-2.987,3.627-2.987h34.15
		c1.707,0,4.267,0.853,4.267,2.774c0.426,9.391,3.415,39.271,5.976,52.289l11.098-52.075c0.426-1.707,1.707-2.987,4.055-2.987
		h17.287c1.707,0,3.414,0.853,4.055,2.987l10.458,52.075c2.349-11.737,6.616-43.751,7.896-52.289
		c0.215-1.706,2.135-2.774,4.27-2.774h29.024c2.347,0,3.629,1.28,3.629,2.987C368.272,262.514,368.058,263.581,367.631,264.861z"/>
	<path fill="#5E8C6A" stroke="#2A2C31" stroke-width="8" stroke-miterlimit="10" d="M417.143,397.397h-32.868
		c-2.349,0-3.842-1.921-3.842-4.482c0-1.281,0.213-9.817,0.853-26.038c0.64-16.007,1.067-28.811,1.067-38.842
		c0-10.031-0.213-22.837-1.067-38.844c-0.64-16.007-0.853-24.543-0.853-25.824c0-2.775,1.493-4.695,3.842-4.695h32.868
		c2.348,0,3.84,1.92,3.84,4.695c0,1.28-0.212,9.816-0.853,25.824c-0.854,16.007-1.067,28.812-1.067,38.844
		c0,10.031,0.428,22.835,1.067,38.842c0.641,16.221,0.853,24.757,0.853,26.038C420.982,395.476,419.49,397.397,417.143,397.397z"/>
	<path fill="#5E8C6A" stroke="#2A2C31" stroke-width="8" stroke-miterlimit="10" d="M521.93,397.397h-74.911
		c-2.349,0-3.843-1.921-3.843-4.482c0-1.281,0.213-9.817,0.854-26.038c0.641-16.007,1.067-28.811,1.067-38.842
		c0-10.031-0.214-22.837-1.067-38.844c-0.641-16.007-0.854-24.543-0.854-25.824c0-2.775,1.494-4.695,3.843-4.695h32.866
		c2.349,0,3.842,1.92,3.842,4.695c0,1.28-0.213,9.816-0.854,25.824c-0.855,16.007-1.066,28.812-1.066,38.844
		c0,10.031,0,7.469,0.211,11.951c0.216,4.268,0.428,8.964,0.643,14.086c0.213,4.27,2.133,6.402,8.109,6.402h27.105
		c4.695,0,5.975,1.708,6.188,4.483l1.708,29.238C525.983,396.757,524.063,397.397,521.93,397.397z"/>
	<path fill="#5E8C6A" stroke="#2A2C31" stroke-width="8" stroke-miterlimit="10" d="M627.143,385.66
		c-5.76,7.683-14.938,11.737-27.104,11.737h-55.703c-2.348,0-3.842-1.921-3.842-4.482c0-1.281,0.214-9.817,0.854-26.038
		c0.641-16.007,1.068-28.811,1.068-38.842c0-10.031-0.215-22.837-1.068-38.844c-0.64-16.007-0.854-24.543-0.854-25.824
		c0-2.775,1.494-4.695,3.842-4.695h55.703c12.166,0,21.129,3.841,27.104,11.739c5.977,7.682,8.965,15.366,8.965,22.835
		c0,3.201-0.213,8.751-0.64,16.646c-0.214,7.684-0.427,13.659-0.427,18.142c0,4.054,0,10.244,0.427,18.14
		c0.427,7.684,0.64,13.232,0.64,16.646C636.107,370.293,633.119,377.763,627.143,385.66z M597.265,302.21
		c-0.64-4.908-3.415-7.255-8.963-7.255c-5.336,0-8.111,2.347-8.964,7.043c-0.428,4.696-0.641,13.445-0.854,26.038
		c0,13.659,0.214,22.623,0.854,26.891c0.641,4.055,3.628,6.189,8.964,6.189s8.323-2.348,8.963-7.043
		c0.428-4.91,0.64-13.446,0.854-26.037C598.119,315.657,597.904,307.119,597.265,302.21z"/>
</g>
<g>
	<path fill="#5E8C6A" stroke="#2A2C31" stroke-width="8" stroke-miterlimit="10" d="M224.282,548.732
		c-6.881,7.109-16.055,10.551-26.375,10.551c-9.863,0-16.972-1.377-22.937-3.67c-5.275-2.064-8.945-3.671-11.925-5.506
		c-1.606-1.146-3.211-2.521-3.211-4.127c0-1.377,0.228-2.753,0.916-3.898c2.295-5.506,5.045-12.844,6.652-19.496
		c0.458-1.605,1.147-2.523,2.752-2.523c0.687,0,1.605,0.459,2.751,1.377c2.754,2.521,6.193,5.045,10.78,6.879
		c3.211,1.377,6.653,2.296,10.322,2.296c5.963,0,10.551-3.44,10.551-13.533c0-2.753-0.688-5.505-2.295-8.487
		c-2.979-5.734-7.567-9.633-14.447-16.054c-11.011-10.093-16.974-16.055-22.478-27.063c-2.981-6.193-4.587-11.697-4.587-19.496
		c0-10.549,3.441-21.101,10.78-28.669c7.568-7.797,16.054-11.237,26.605-11.237c7.569,0,13.991,0.917,19.725,3.211
		c6.422,2.522,10.321,4.587,12.844,6.65c1.147,0.687,2.293,2.522,2.293,3.67c0,0.917-0.458,2.063-0.917,2.982
		c-2.293,4.815-6.422,13.99-8.486,18.576c-0.229,0.689-0.688,1.377-1.834,1.377c-0.688,0-1.836-0.229-2.983-1.146
		c-1.835-1.377-3.898-2.752-7.11-4.13c-2.981-1.604-6.193-2.522-9.634-2.753c-5.733,0-10.78,3.9-10.78,12.845
		c0,2.753,0.459,5.276,1.836,8.257c2.293,4.817,6.65,9.634,12.615,14.68c12.385,10.779,20.413,20.643,24.54,29.355
		c3.211,6.653,4.817,11.928,4.817,18.81C235.062,531.529,231.163,541.622,224.282,548.732z"/>
	<path fill="#5E8C6A" stroke="#2A2C31" stroke-width="8" stroke-miterlimit="10" d="M323.592,415.248
		c-9.173,27.064-22.017,66.055-25.687,81.189c0.228,11.24,0.457,24.084,0.916,36.24c0.459,11.926,0.688,18.576,0.688,19.724
		c0,2.753-1.377,4.817-4.359,4.817h-24.311c-2.292,0-4.127-1.605-4.127-4.817c0-1.147,0-7.568,0.459-19.724
		c0.458-12.156,0.688-24.771,0.916-36.24c-1.375-5.961-16.743-54.584-26.834-81.189c-0.459-1.376-1.376-3.44-1.376-4.817
		c0-1.606,0.689-2.294,3.671-2.294h23.852c3.44,0,5.275,1.148,5.963,4.129l11.239,46.33l11.696-46.1
		c0.459-2.064,2.753-4.358,6.193-4.358h18.806c2.754,0,3.67,0.458,3.67,2.294C324.968,411.577,324.28,413.872,323.592,415.248z"/>
	<path fill="#5E8C6A" stroke="#2A2C31" stroke-width="8" stroke-miterlimit="10" d="M410.972,545.293
		c-5.733,7.797-13.992,11.926-25.687,11.926h-44.724c-2.752,0-4.358-2.064-4.358-4.817c0-1.376,0.459-10.55,0.919-27.981
		c0.457-17.201,0.688-30.963,0.916-41.741c0-10.78-0.459-24.542-0.916-41.744c-0.459-17.201-0.919-26.375-0.919-27.75
		c0-2.983,1.606-5.047,4.358-5.047h44.724c11.468,0,19.954,3.898,25.687,11.926c5.505,7.799,8.257,15.597,8.257,23.166
		c0,3.67,0,11.007-0.457,19.725c-0.23,8.485-0.459,15.138-0.459,19.725c0,4.586,0.229,11.009,0.459,19.724
		c0.457,8.486,0.457,16.056,0.457,19.494C419.229,529.466,416.477,537.493,410.972,545.293z M387.809,446.439
		c-0.46-6.422-4.359-9.632-9.863-9.632c-7.339,0-9.174,1.376-9.862,7.798c-0.688,6.193-0.917,20.184-0.917,38.073
		c0,18.577,0.229,32.567,0.917,38.531c0.688,5.964,2.523,7.339,9.862,7.339c5.504,0,9.174-3.211,9.863-9.633
		c0.687-6.192,0.916-18.348,0.916-36.237S388.496,452.633,387.809,446.439z"/>
	<path fill="#5E8C6A" stroke="#2A2C31" stroke-width="8" stroke-miterlimit="10" d="M520.37,557.219h-22.478
		c-2.063,0-5.503-1.836-6.422-4.817c-3.211-11.927-8.717-30.274-13.531-44.495c-2.982-9.861-8.029-25.459-9.404-28.897v18.349
		c0,1.834,0.23,12.613,0.919,28.209c0.688,15.367,1.146,25.23,1.146,26.835c0,2.522-1.605,4.817-4.129,4.817h-22.019
		c-2.751,0-4.355-2.064-4.355-4.817c0-1.376,0.457-10.55,0.916-27.981c0.46-17.201,0.688-30.963,0.919-41.741
		c0-10.78-0.459-24.542-0.919-41.744c-0.459-17.201-0.916-26.375-0.916-27.75c0-2.983,1.604-5.047,4.355-5.047h22.708
		c2.75,0,5.273,1.376,6.191,5.047l22.936,73.164v-19.954c0-0.917-0.229-13.531-0.918-27.981
		c-0.688-14.449-0.916-23.853-0.916-25.228c0-2.983,1.376-5.047,3.898-5.047h22.019c2.753,0,4.356,2.064,4.356,5.047
		c0,1.375-0.229,10.549-0.688,27.75c-0.688,17.202-0.916,30.964-0.916,41.744c0,10.778,0.229,24.54,0.916,41.741
		c0.459,17.432,0.688,26.605,0.688,27.981C524.727,555.154,523.123,557.219,520.37,557.219z"/>
	<path fill="#5E8C6A" stroke="#2A2C31" stroke-width="8" stroke-miterlimit="10" d="M619.907,557.219h-69.724
		c-2.752,0-4.358-2.064-4.358-4.817c0-1.376,0.46-10.55,0.919-27.981c0.459-17.201,0.688-30.963,0.916-41.741
		c0-10.78-0.457-24.542-0.916-41.744c-0.459-17.201-0.919-26.375-0.919-27.75c0-2.983,1.606-5.047,4.358-5.047h68.807
		c2.523,0,5.046,2.064,5.046,4.358l-1.376,20.642c-0.23,1.604-1.605,4.127-5.965,4.127h-35.319c-2.522,0-4.587,0.919-4.587,3.899
		v23.625c0,1.834,0.688,3.211,3.211,3.211h22.707c3.211,0,4.128,1.375,4.128,4.357v18.807c0,3.67-2.063,4.586-4.128,4.586h-22.478
		c-2.063,0-3.44,0.918-3.44,3.441v23.165c0,3.439,2.752,5.734,9.174,5.734h30.732c4.59,0,5.734,1.835,5.965,5.046l1.376,20.641
		C624.036,556.072,621.973,557.219,619.907,557.219z"/>
	<path fill="#5E8C6A" stroke="#2A2C31" stroke-width="8" stroke-miterlimit="10" d="M715.088,415.248
		c-9.174,27.064-22.02,66.055-25.689,81.189c0.23,11.24,0.459,24.084,0.916,36.24c0.459,11.926,0.689,18.576,0.689,19.724
		c0,2.753-1.375,4.817-4.359,4.817h-24.311c-2.292,0-4.127-1.605-4.127-4.817c0-1.147,0-7.568,0.459-19.724
		c0.457-12.156,0.688-24.771,0.916-36.24c-1.375-5.961-16.742-54.584-26.834-81.189c-0.459-1.376-1.375-3.44-1.375-4.817
		c0-1.606,0.688-2.294,3.67-2.294h23.851c3.44,0,5.275,1.148,5.963,4.129l11.239,46.33l11.697-46.1
		c0.459-2.064,2.754-4.358,6.191-4.358h18.809c2.752,0,3.67,0.458,3.67,2.294C716.463,411.577,715.773,413.872,715.088,415.248z"/>
</g>
<g>
	<g>
		<rect x="194.581" y="576.629" fill="#F1C45A" stroke="#F1C45A" stroke-miterlimit="10" width="475.427" height="5.268"/>
	</g>
	<g>
		<rect x="236.361" y="589.799" fill="#F1C45A" stroke="#F1C45A" stroke-miterlimit="10" width="391.867" height="3.011"/>
	</g>
</g>
<g>
	<rect x="426.521" y="236.308" fill="#F1C45A" width="207.745" height="5.269"/>
	<rect x="230.322" y="236.308" fill="#F1C45A" width="196.198" height="5.269"/>
	<rect x="265.82" y="225.395" fill="#F1C45A" width="160.7" height="3.011"/>
	<rect x="426.521" y="225.395" fill="#F1C45A" width="172.246" height="3.011"/>
</g>
<g>
	<path fill="#FEFBE1" d="M293.947,623.116l-2.402,8.829h5.286l-0.661,3.844h-5.646l-3.002,10.93h-3.604l2.884-10.93h-5.825
		l-3.005,10.93h-3.542l2.882-10.93h-5.885l0.66-3.844h6.246l2.343-8.829h-5.946l0.72-3.903h6.247l2.582-9.79h3.844l-2.644,9.79
		h5.707l2.582-9.79h3.905l-2.642,9.79h5.404l-0.541,3.903H293.947z M284.398,623.116l-2.402,8.829h5.826l2.343-8.829H284.398z"/>
	<path fill="#FEFBE1" d="M322.055,622.877c3.783,0,6.786-0.061,10.629-0.182c0.662,0.061,0.601,1.861,0.18,2.102l-0.901,0.182
		c-1.38,0.3-2.221,0.6-2.221,0.9c0,0.48,0.121,0.841,0.481,1.861c1.081,2.883,2.761,6.787,4.083,9.67
		c1.441-3.482,2.402-6.426,3.363-9.189c0.361-1.08,0.541-1.921,0.541-2.342c0-0.301-0.48-0.601-1.502-0.841l-1.021-0.241
		c-0.36-0.419-0.36-1.861,0.24-2.102c1.982,0.121,3.423,0.182,4.925,0.182c1.741,0,3.303-0.061,4.625-0.182
		c0.541,0.24,0.66,1.562,0.18,2.102l-0.84,0.182c-1.983,0.42-2.403,1.021-3.364,3.242c-2.762,6.127-5.525,12.732-8.047,19.1
		c-0.36,0.359-0.781,0.42-1.381,0.42c-0.601,0-1.021-0.061-1.382-0.42c-1.26-3.244-4.385-10.271-6.186-14.115
		c-1.561,3.124-5.167,11.111-6.546,14.115c-0.36,0.359-0.781,0.42-1.381,0.42c-0.601,0-1.021-0.061-1.381-0.42
		c-2.883-6.787-5.826-13.693-8.769-19.939c-0.841-1.742-1.442-1.982-2.463-2.283l-1.082-0.301c-0.419-0.479-0.419-1.801,0.181-2.102
		c2.462,0.121,4.384,0.182,6.907,0.182H322.055z M320.432,625.338c-0.84-0.18-1.802-0.24-2.882-0.24
		c-1.922,0-3.063,0.24-3.063,0.901c0,0.36,0.181,1.081,0.541,1.981c0.84,2.103,3.242,7.508,4.262,9.43
		c0.841-1.621,2.884-5.945,3.185-7.146c0.181-0.781,0.181-1.322,0.181-1.803C322.655,627.5,321.634,625.578,320.432,625.338z"/>
	<path fill="#FEFBE1" d="M358.749,639.932c0,4.205,0.24,4.745,2.223,4.926l1.141,0.12c0.481,0.36,0.481,1.741-0.059,2.101
		c-2.103-0.119-4.445-0.178-7.207-0.178c-2.703,0-5.225,0.059-7.207,0.178c-0.541-0.359-0.541-1.74-0.061-2.101l1.141-0.12
		c1.982-0.181,2.222-0.721,2.222-4.926v-9.068c0-2.402,0-3.123-1.141-3.843l-0.84-0.54c-0.42-0.361-0.42-1.442,0-1.803
		c2.822-0.781,7.087-2.402,8.889-3.483c0.48,0,0.841,0.181,1.081,0.54c-0.12,1.803-0.181,4.445-0.181,7.147V639.932z
		 M359.229,612.787c0,2.883-2.222,4.383-4.504,4.383c-2.643,0-4.205-1.801-4.205-4.264c0-2.643,2.102-4.384,4.506-4.384
		C357.548,608.522,359.229,610.384,359.229,612.787z"/>
	<path fill="#FEFBE1" d="M369.318,613.508c0-2.402,0-3.063-1.201-3.784l-1.021-0.601c-0.42-0.361-0.42-1.441,0-1.801
		c2.583-0.602,6.187-2.044,9.189-3.364c0.36,0,0.781,0.12,1.021,0.421c-0.122,2.462-0.182,4.983-0.182,8.768v26.785
		c0,4.205,0.242,4.686,2.343,4.926l1.022,0.12c0.48,0.36,0.48,1.741-0.06,2.101c-1.982-0.119-4.505-0.178-7.207-0.178
		c-2.584,0-5.106,0.059-7.208,0.178c-0.54-0.359-0.54-1.74-0.06-2.101l1.141-0.12c1.981-0.181,2.222-0.721,2.222-4.926V613.508z"/>
	<path fill="#FEFBE1" d="M411.119,637.049c0,5.646,0.24,7.027,1.381,7.027c1.082,0,1.562-0.119,2.584-0.48
		c0.66,0.541,0.66,2.042,0.06,2.582c-5.946,0.361-10.63,2.162-10.811,2.162c-0.42,0-0.9-0.359-1.02-0.84l0.18-1.862
		c-0.06-0.479-0.3-0.66-0.541-0.479c-2.103,1.32-4.265,2.582-6.486,2.582c-6.847,0-11.471-5.346-11.471-11.832
		c0-8.469,6.365-13.873,14.292-13.873c1.322,0,2.764,0.121,3.425,0.301c0.42-0.18,0.601-0.662,0.601-1.142v-7.687
		c0-2.402,0-3.063-1.202-3.784l-1.021-0.601c-0.481-0.361-0.42-1.441,0-1.801c2.583-0.602,6.246-2.044,9.188-3.364
		c0.422,0,0.781,0.12,1.022,0.421c-0.12,2.462-0.181,4.983-0.181,8.768V637.049z M403.312,629.062c0-0.961-0.181-1.562-0.421-2.042
		c-0.72-1.263-2.042-2.224-3.423-2.224c-3.062,0-6.065,3.184-6.065,9.49c0,3.964,1.802,9.429,6.727,9.429
		c0.84,0,1.682-0.239,2.462-0.721c0.66-0.42,0.721-1.201,0.721-2.282V629.062z"/>
	<path fill="#FEFBE1" d="M419.468,645.879c-0.661-1.202-1.081-4.085-0.962-6.787c0.36-0.601,1.682-0.66,2.043-0.119
		c0.779,2.461,3.062,6.005,6.125,6.005c1.803,0,3.123-1.081,3.123-3.122c0-2.223-1.922-3.484-3.963-4.506
		c-3.604-1.801-6.188-3.963-6.188-7.566c0-5.227,4.385-7.748,9.549-7.748c3.063,0,5.766,0.781,6.427,1.262
		c0.602,1.32,0.901,3.724,0.901,6.005c-0.24,0.661-1.742,0.661-2.102,0.241c-1.202-3.483-2.703-4.746-4.686-4.746
		c-1.74,0-3.002,1.022-3.002,2.643c0,1.383,1.141,2.523,3.844,3.844c4.083,1.982,6.605,4.506,6.605,8.409
		c-0.06,5.345-4.625,8.048-10.27,8.048C423.49,647.74,421.089,647.139,419.468,645.879z"/>
	<path fill="#FEFBE1" d="M439.886,624.797c-0.42-0.419-0.42-1.861,0.181-2.102c2.16,0.121,4.743,0.182,7.928,0.182
		c2.222,0,4.504-0.061,6.727-0.182c0.601,0.24,0.66,1.683,0.18,2.102l-1.201,0.241c-1.682,0.36-1.803,0.601-1.803,1.142
		c0,0.721,0.662,2.281,1.803,5.345c0.66,1.681,1.98,5.345,2.703,6.847c0.66-1.262,1.26-2.643,1.86-3.964l1.081-2.462
		c1.262-2.883,2.223-5.406,2.223-6.066c0-0.42-0.6-0.721-1.322-0.841l-1.2-0.241c-0.541-0.419-0.48-1.92,0.181-2.102
		c1.32,0.121,3.123,0.182,5.824,0.182c1.562,0,3.124-0.061,4.686-0.182c0.601,0.24,0.661,1.742,0.121,2.102l-1.142,0.121
		c-1.202,0.12-2.224,0.6-2.763,1.322c-0.721,0.96-2.223,3.543-3.543,6.305l-3.184,6.547c-2.102,4.324-6.967,14.475-9.129,18.918
		c-1.262,2.703-2.943,3.904-5.164,3.965c-3.244,0.059-3.844-1.982-3.844-3.604c0-1.803,1.32-3.125,3.422-3.125h1.441
		c1.441,0,2.343-0.479,2.943-1.26c0.661-0.9,1.141-2.043,1.742-3.303c0.359-0.721,0.84-1.803,0.84-2.523
		c0-0.781-0.18-1.922-1.141-4.385l-5.766-14.533c-1.142-2.883-1.682-3.964-3.604-4.264L439.886,624.797z"/>
	<path fill="#FEFBE1" d="M495.92,637.049c0,5.646,0.24,7.027,1.381,7.027c1.081,0,1.561-0.119,2.583-0.48
		c0.66,0.541,0.66,2.042,0.06,2.582c-5.945,0.361-10.631,2.162-10.811,2.162c-0.42,0-0.9-0.359-1.021-0.84l0.182-1.862
		c-0.061-0.479-0.301-0.66-0.541-0.479c-2.102,1.32-4.266,2.582-6.486,2.582c-6.847,0-11.471-5.346-11.471-11.832
		c0-8.469,6.365-13.873,14.293-13.873c1.321,0,2.764,0.121,3.424,0.301c0.421-0.18,0.6-0.662,0.6-1.142v-7.687
		c0-2.402,0-3.063-1.2-3.784l-1.021-0.601c-0.481-0.361-0.422-1.441,0-1.801c2.582-0.602,6.245-2.044,9.188-3.364
		c0.421,0,0.78,0.12,1.021,0.421c-0.119,2.462-0.18,4.983-0.18,8.768V637.049z M488.111,629.062c0-0.961-0.179-1.562-0.42-2.042
		c-0.721-1.263-2.041-2.224-3.424-2.224c-3.062,0-6.064,3.184-6.064,9.49c0,3.964,1.802,9.429,6.727,9.429
		c0.84,0,1.682-0.239,2.462-0.721c0.661-0.42,0.72-1.201,0.72-2.282V629.062z"/>
	<path fill="#FEFBE1" d="M506.91,630.863c0-2.402,0-3.123-1.141-3.843l-0.842-0.54c-0.421-0.361-0.421-1.442,0-1.803
		c2.823-0.781,7.146-2.402,8.889-3.483c0.48,0,0.84,0.181,1.081,0.54c0,0.842-0.181,2.283-0.181,2.703
		c0,0.359,0.121,0.48,0.301,0.48s0.78-0.301,1.141-0.48c1.322-0.781,4.145-2.402,6.907-2.402c4.985,0,7.507,3.424,7.507,7.568
		v10.328c0,4.205,0.24,4.686,2.402,4.926l0.961,0.12c0.48,0.36,0.48,1.741-0.061,2.101c-1.861-0.119-4.383-0.178-7.268-0.178
		c-2.4,0-4.743,0.059-6.484,0.178c-0.541-0.359-0.541-1.74-0.061-2.101l1.081-0.181c1.381-0.24,1.622-0.66,1.622-3.964v-10.149
		c0-2.343-1.201-4.264-4.205-4.264c-1.682,0-2.883,0.78-3.363,1.441c-0.359,0.42-0.48,1.141-0.48,2.222v10.75
		c0,3.304,0.24,3.844,1.741,4.024l0.961,0.12c0.481,0.36,0.481,1.741-0.061,2.101c-1.861-0.119-3.783-0.178-6.665-0.178
		c-2.522,0-4.984,0.059-7.087,0.178c-0.54-0.359-0.54-1.74-0.06-2.101l0.96-0.12c2.163-0.24,2.403-0.721,2.403-4.926V630.863z"/>
	<path fill="#FEFBE1" d="M547.389,632.665c-1.381,0-1.502,0.12-1.502,1.082c0,4.504,2.883,8.888,8.469,8.888
		c1.681,0,3.963-0.359,5.585-3.123c0.661-0.119,1.562,0.36,1.562,1.381c-2.463,5.105-6.906,6.848-10.512,6.848
		c-8.107,0-12.49-5.705-12.49-12.252c0-7.567,5.465-13.453,12.973-13.453c6.245,0,9.609,4.024,9.609,8.648
		c0,1.141-0.301,1.981-2.163,1.981H547.389z M551.352,630.023c0.841,0,1.803-0.12,2.463-0.541c0.301-0.181,0.42-0.781,0.42-1.381
		c0-1.982-1.141-3.305-3.184-3.305c-2.521,0-4.684,2.403-4.684,4.325c0,0.841,0.841,0.901,2.762,0.901H551.352z"/>
	<path fill="#FEFBE1" d="M562.822,624.797c-0.42-0.419-0.42-1.861,0.182-2.102c2.162,0.121,4.744,0.182,7.928,0.182
		c2.222,0,4.504-0.061,6.727-0.182c0.6,0.24,0.66,1.683,0.18,2.102l-1.201,0.241c-1.682,0.36-1.801,0.601-1.801,1.142
		c0,0.721,0.66,2.281,1.801,5.345c0.66,1.681,1.982,5.345,2.702,6.847c0.661-1.262,1.261-2.643,1.862-3.964l1.081-2.462
		c1.261-2.883,2.222-5.406,2.222-6.066c0-0.42-0.6-0.721-1.32-0.841l-1.201-0.241c-0.541-0.419-0.48-1.92,0.18-2.102
		c1.321,0.121,3.121,0.182,5.826,0.182c1.561,0,3.123-0.061,4.684-0.182c0.602,0.24,0.66,1.742,0.12,2.102l-1.142,0.121
		c-1.2,0.12-2.221,0.6-2.762,1.322c-0.721,0.96-2.223,3.543-3.543,6.305l-3.184,6.547c-2.103,4.324-6.967,14.475-9.129,18.918
		c-1.262,2.703-2.943,3.904-5.165,3.965c-3.243,0.059-3.844-1.982-3.844-3.604c0-1.803,1.321-3.125,3.423-3.125h1.441
		c1.441,0,2.342-0.479,2.943-1.26c0.66-0.9,1.141-2.043,1.742-3.303c0.36-0.721,0.84-1.803,0.84-2.523
		c0-0.781-0.18-1.922-1.141-4.385l-5.766-14.533c-1.141-2.883-1.682-3.964-3.604-4.264L562.822,624.797z"/>
</g>
<circle fill-rule="evenodd" clip-rule="evenodd" fill="#FEFBE1" stroke="#2A2C31" stroke-width="20" stroke-miterlimit="10" cx="432.294" cy="180.934" r="61.177"/>
<path fill-rule="evenodd" clip-rule="evenodd" fill="#5E8C6A" stroke="#FFFFFF" stroke-miterlimit="10" d="M434.12,180.566
	c22.007-0.358,37.821-23.578,28.724-45.231C440.375,134.921,425.791,158.256,434.12,180.566z"/>
<path fill-rule="evenodd" clip-rule="evenodd" fill="#5E8C6A" stroke="#FFFFFF" stroke-miterlimit="10" d="M418.232,205.684
	c9.762,13.537,31.063,13.31,40.592-1.736C449.342,189.788,428.5,190.83,418.232,205.684z"/>
<path fill-rule="evenodd" clip-rule="evenodd" fill="#5E8C6A" stroke="#FFFFFF" stroke-miterlimit="10" d="M420.836,199.473
	c12.088-11.506,8.973-32.58-7.227-39.979C400.867,170.81,404.727,191.316,420.836,199.473z"/>
<g>
	<path fill="#5E8C6A" d="M393.299,226.687c4.528-4.188,8.84-8.477,13.036-12.861c4.163-4.414,8.187-8.924,11.999-13.606
		c3.818-4.677,7.423-9.518,10.843-14.514c3.399-5.014,6.56-10.198,9.667-15.536c-1.569,5.981-4.026,11.72-7.002,17.161
		c-2.959,5.458-6.487,10.606-10.41,15.417c-3.932,4.805-8.254,9.287-12.95,13.329C403.797,220.115,398.799,223.84,393.299,226.687z"
		/>
</g>
<circle fill="none" stroke="#FFFFFF" stroke-width="9" stroke-miterlimit="10" cx="430.189" cy="406.346" r="316.098"/>
<text transform="matrix(1 0 0 1 -372 804.918)" font-family="'Hamilton-Medium'" font-size="36.7489">HAMILTON MEDIUM</text>
<text transform="matrix(1 0 0 1 -366.896 840.6465)" font-family="'AGaramondPro-Bold'" font-size="36.7489">Adobe Garamond Bold</text>
<text transform="matrix(1 0 0 1 -369.998 719.8008)" font-family="'Helvetica-Bold'" font-size="36.3672">Fonts Used.</text>
</svg>
